HIERARCHY
ROOT ui
{
	 OFFSET 0 0 0
	 CHANNELS 3 XPosition YPosition Z Position
	 EndSite
	 {
	 OFFSET 0 -1 0
	 }
}
ROOT li
{
	 OFFSET 0 0 0
	 CHANNELS 3 XPosition YPosition Z Position
	 EndSite
	 {
	 OFFSET 0 -1 0
	 }
}
ROOT ul
{
	 OFFSET 0 0 0
	 CHANNELS 3 XPosition YPosition Z Position
	 EndSite
	 {
	 OFFSET 0 -1 0
	 }
}
ROOT ll
{
	 OFFSET 0 0 0
	 CHANNELS 3 XPosition YPosition Z Position
	 EndSite
	 {
	 OFFSET 0 -1 0
	 }
}
ROOT tt
{
	 OFFSET 0 0 0
	 CHANNELS 3 XPosition YPosition Z Position
	 EndSite
	 {
	 OFFSET 0 -1 0
	 }
}
ROOT tb
{
	 OFFSET 0 0 0
	 CHANNELS 3 XPosition YPosition Z Position
	 EndSite
	 {
	 OFFSET 0 -1 0
	 }
}
ROOT td
{
	 OFFSET 0 0 0
	 CHANNELS 3 XPosition YPosition Z Position
	 EndSite
	 {
	 OFFSET 0 -1 0
	 }
}
ROOT v
{
	 OFFSET 0 0 0
	 CHANNELS 3 XPosition YPosition Z Position
	 EndSite
	 {
	 OFFSET 0 -1 0
	 }
}
ROOT bn
{
	 OFFSET 0 0 0
	 CHANNELS 3 XPosition YPosition Z Position
	 EndSite
	 {
	 OFFSET 0 -1 0
	 }
}
MOTION
Frames: 21
Frame Time: 0.002
0.001365036964416504	0.001642369031906128	0		0.546549560546875	-2.438447509765625	0		-1.209055908203125	-0.10305817413330078	0		-0.42989938354492185	-2.863132568359375	0		2.127470458984375	-0.9523221435546875	0		3.2760634765625	0.11523733520507813	0		4.5527421875	0.4771205139160156	0		5.96146240234375	0.4168304748535156	0		-0.34770648193359377	5.8495244140625	0		
0.0013124239444732666	0.001590196967124939	0		0.5117092590332031	-2.427043212890625	0		-1.215029296875	-0.09707021331787109	0		-0.42581881713867187	-2.859248046875	0		2.144545166015625	-0.94452783203125	0		3.28904443359375	0.1181158218383789	0		4.56675048828125	0.48302316284179686	0		5.95776953125	0.3998525390625	0		-0.3479286193847656	5.84946240234375	0		
0.0012680679559707642	0.0015230129957199098	0		0.563662109375	-2.432751220703125	0		-1.1801241455078124	-0.1016099624633789	0		-0.43362313842773437	-2.846226806640625	0		2.155701171875	-0.9306779174804688	0		3.33716943359375	0.1315301513671875	0		4.5766923828125	0.4829508666992188	0		5.9551201171875	0.4450751647949219	0		-0.3632650451660156	5.83857568359375	0		
-0.008892297744750977	-0.00843302059173584	0		0.5097272644042968	-2.429141845703125	0		-1.2320147705078126	-0.09006831359863281	0		-0.43053994750976565	-2.84235791015625	0		2.163825927734375	-0.9198098754882813	0		3.294247314453125	0.1410677490234375	0		4.5908955078125	0.5028011474609375	0		5.95562890625	0.41056405639648436	0		-0.33035586547851564	5.8450693359375	0		
-0.0028303539752960205	-0.0016068849563598633	0		0.5466389770507812	-2.43869189453125	0		-1.219177490234375	-0.1013553237915039	0		-0.45835061645507813	-2.83011474609375	0		2.148997314453125	-0.9056732788085937	0		3.3182919921875	0.14674038696289063	0		4.598845703125	0.5017034301757812	0		5.95282080078125	0.42281805419921875	0		-0.3645818786621094	5.83939111328125	0		
0.004230398178100586	0.004192432880401611	0		0.5267999267578125	-2.4285439453125	0		-1.2151395263671876	-0.0975422134399414	0		-0.41422457885742187	-2.8237880859375	0		2.20124755859375	-0.8863963623046875	0		3.336236328125	0.14346800231933593	0		4.60682177734375	0.5015812377929687	0		5.95281201171875	0.4228280334472656	0		-0.34761181640625	5.8470576171875	0		
0.001193215012550354	0.0011042280197143554	0		0.5678519287109375	-2.428173583984375	0		-1.1930643310546876	-0.09196517181396484	0		-0.4199868774414062	-2.808847412109375	0		2.165478759765625	-0.869034912109375	0		3.34067138671875	0.17834759521484375	0		4.6130625	0.521459228515625	0		5.95506787109375	0.44521524047851563	0		-0.38276129150390625	5.84336376953125	0		
0.0012096279859542846	9.654690027236938E-4	0		0.5139474487304687	-2.42462939453125	0		-1.232031005859375	-0.09063518524169922	0		-0.4416755981445312	-2.788719482421875	0		2.212667236328125	-0.856728515625	0		3.34153515625	0.16624871826171875	0		4.62899462890625	0.515192138671875	0		5.95561474609375	0.4105163879394531	0		-0.3838222961425781	5.8442314453125	0		
-0.005842647075653076	-0.006097614765167236	0		0.5639110717773438	-2.433396728515625	0		-1.201097412109375	-0.09918909454345703	0		-0.4375536804199219	-2.784926513671875	0		2.170953857421875	-0.837326904296875	0		3.33258056640625	0.16725518798828126	0		4.63309716796875	0.5210534057617188	0		5.947794921875	0.4106334228515625	0		-0.3507821044921875	5.8506630859375	0		
0.0012987780570983887	6.519410014152526E-4	0		0.5140986938476563	-2.4249296875	0		-1.231939453125	-0.09098029327392577	0		-0.41847940063476563	-2.786331298828125	0		2.18220458984375	-0.8226015625	0		3.35264404296875	0.16788343811035156	0		4.637232421875	0.5278963623046875	0		5.947833984375	0.4104775085449219	0		-0.350798095703125	5.85049609375	0		
0.0013757859468460083	4.7894498705863955E-4	0		0.519289306640625	-2.418159912109375	0		-1.2278243408203124	-0.08821697235107422	0		-0.4910420837402344	-2.7596015625	0		2.184639404296875	-0.794777587890625	0		3.35298095703125	0.18874583435058595	0		4.63730322265625	0.5277745971679687	0		5.94788916015625	0.41029287719726565	0		-0.35078570556640626	5.8503193359375	0		
0.004514670848846435	0.00325926399230957	0		0.5105165710449219	-2.41022509765625	0		-1.192774169921875	-0.09284719085693359	0		-0.416942138671875	-2.762709716796875	0		2.18798583984375	-0.7759757080078125	0		3.36290576171875	0.17447529602050782	0		4.64739892578125	0.527516357421875	0		5.95737548828125	0.4374839782714844	0		-0.3507449340820312	5.85013330078125	0		
0.001606070041656494	1.0674399882555008E-4	0		0.5435053100585937	-2.4238193359375	0		-1.2316292724609375	-0.0915644760131836	0		-0.4476961669921875	-2.75551904296875	0		2.202357177734375	-0.7573192138671875	0		3.381192626953125	0.18709443664550782	0		4.64752197265625	0.5273733520507813	0		5.95746728515625	0.4372605895996094	0		-0.3506757202148437	5.84993994140625	0		
0.0017625900506973266	-9.053599834442139E-5	0		0.53276171875	-2.417875	0		-1.1924873046875	-0.09325874328613282	0		-0.42038961791992185	-2.74605712890625	0		2.1998447265625	-0.731458984375	0		3.36328662109375	0.18215538024902345	0		4.653759765625	0.53414794921875	0		5.949734375	0.43726089477539065	0		-0.35156585693359377	5.85075146484375	0		
0.0019478240013122558	-2.9443201422691345E-4	0		0.5199603881835938	-2.418912109375	0		-1.2272486572265624	-0.08904067993164062	0		-0.4850097961425781	-2.73245947265625	0		2.179312255859375	-0.7093812866210938	0		3.35855712890625	0.18904754638671875	0		4.65176611328125	0.5200177612304687	0		5.94273388671875	0.43722958374023435	0		-0.3514407043457031	5.8505439453125	0		
0.005198911190032959	0.0024581189155578613	0		0.5242493286132812	-2.41516650390625	0		-1.2189473876953125	-0.08236343383789063	0		-0.4417081298828125	-2.728208251953125	0		2.175794677734375	-0.688520263671875	0		3.377581787109375	0.17363844299316405	0		4.6380625	0.5270299682617188	0		5.9542099609375	0.41933364868164064	0		-0.3493133239746094	5.8483056640625	0		
0.002404376983642578	-7.201550006866455E-4	0		0.5415911254882813	-2.409587646484375	0		-1.2187041015625	-0.08259244537353516	0		-0.45332354736328123	-2.71928076171875	0		2.1823291015625	-0.6657884521484375	0		3.3671455078125	0.19959378051757812	0		4.656458984375	0.5396405639648437	0		5.95072900390625	0.401882080078125	0		-0.35110958862304686	5.8501103515625	0		
0.0026738131046295166	-9.413449764251709E-4	0		0.5378382568359374	-2.4137529296875	0		-1.19346044921875	-0.08513668823242188	0		-0.45302371215820314	-2.719507080078125	0		2.167854736328125	-0.6458010864257813	0		3.350191162109375	0.18162208557128906	0		4.65856103515625	0.5264476318359375	0		5.9472666015625	0.38442391967773437	0		-0.3528682556152344	5.85291015625	0		
0.0029680829048156737	-0.0011677659749984742	0		0.502298828125	-2.40252880859375	0		-1.18912841796875	-0.08242643737792969	0		-0.452698486328125	-2.71973876953125	0		2.1754404296875	-0.6230912475585938	0		3.36855615234375	0.18721061706542969	0		4.644763671875	0.5194479370117188	0		5.9474775390625	0.3841502685546875	0		-0.3667756042480469	5.841853515625	0		
-0.005702499866485596	-2.878479957580566E-4	0		0.540528564453125	-2.412223388671875	0		-1.17882421875	-0.08379487609863281	0		-0.4503263854980469	-2.718	0		2.14812451171875	-0.5939536743164062	0		3.36970947265625	0.17400662231445313	0		4.64491357421875	0.5062709350585938	0		5.9342939453125	0.411953369140625	0		-0.352391357421875	5.8524443359375	0		
0.006656774044036865	0.0013282439708709717	0		0.48998199462890624	-2.404823486328125	0		-1.21937353515625	-0.07453828430175781	0		-0.4329981384277344	-2.721450439453125	0		2.167774169921875	-0.569401123046875	0		3.356142822265625	0.18198193359375	0		4.64931689453125	0.5120387573242188	0		5.9416650390625	0.4114507141113281	0		-0.3521228637695312	5.85220458984375	0		
